<?xml version="1.0" standalone="no"?>
<!DOCTYPE svg PUBLIC "-//W3C//DTD SVG 20010904//EN"
 "http://www.w3.org/TR/2001/REC-SVG-20010904/DTD/svg10.dtd">
<svg version="1.0" xmlns="http://www.w3.org/2000/svg"
 width="72.000000pt" height="60.000000pt" viewBox="0 0 72.000000 60.000000"
 preserveAspectRatio="xMidYMid meet">

<g transform="translate(0.000000,60.000000) scale(0.100000,-0.100000)"
fill="#000000" stroke="none">
<path d="M241 586 c-7 -8 -11 -30 -8 -48 l4 -33 1 37 c1 20 6 38 12 40 5 2 59
2 120 0 l110 -3 2 -37 1 -37 4 33 c7 55 -6 62 -127 62 -81 0 -110 -4 -119 -14z"/>
<path d="M85 460 l-80 -5 -3 -54 c-2 -40 1 -58 15 -73 69 -76 311 -118 483
-84 95 20 164 47 197 78 18 17 23 32 23 75 0 37 -4 55 -14 59 -19 7 -519 10
-621 4z m615 -62 c0 -29 -4 -58 -8 -65 -25 -40 -216 -93 -333 -93 -113 0 -307
55 -331 93 -4 7 -8 36 -8 65 l0 52 340 0 340 0 0 -52z"/>
<path d="M0 142 c0 -78 4 -122 12 -130 17 -17 679 -17 696 0 15 15 17 248 2
248 -6 0 -10 -47 -10 -120 l0 -120 -340 0 -340 0 0 120 c0 73 -4 120 -10 120
-6 0 -10 -46 -10 -118z"/>
<path d="M304 178 c-3 -4 23 -7 58 -7 66 1 62 6 -10 11 -24 2 -46 0 -48 -4z"/>
</g>
</svg>
