<?xml version="1.0" standalone="no"?>
<!DOCTYPE svg PUBLIC "-//W3C//DTD SVG 20010904//EN"
 "http://www.w3.org/TR/2001/REC-SVG-20010904/DTD/svg10.dtd">
<svg version="1.0" xmlns="http://www.w3.org/2000/svg"
 width="79.000000pt" height="60.000000pt" viewBox="0 0 79.000000 60.000000"
 preserveAspectRatio="xMidYMid meet">

<g transform="translate(0.000000,60.000000) scale(0.100000,-0.100000)"
fill="#000000" stroke="none">
<path d="M335 591 c-13 -6 8 -10 62 -12 72 -4 86 -8 125 -35 57 -42 98 -119
98 -185 0 -27 5 -49 10 -49 6 0 10 7 10 15 0 35 79 -6 110 -57 29 -47 27 -134
-3 -178 -41 -61 -70 -71 -234 -77 -81 -3 -206 -2 -277 2 l-129 7 -41 38 c-38
36 -40 41 -44 106 -5 105 35 157 135 174 26 4 40 8 31 9 -15 1 -18 10 -18 49
1 69 44 112 113 112 32 0 46 -7 78 -39 l39 -39 0 -141 c0 -77 -4 -141 -8 -141
-4 0 -23 16 -42 35 -18 19 -36 32 -39 29 -3 -2 17 -24 44 -49 l49 -44 46 42
c25 23 47 46 49 52 4 11 -62 -45 -67 -57 -14 -30 -21 13 -24 143 l-3 151 -37
34 c-32 29 -45 34 -87 34 -76 0 -131 -58 -131 -140 0 -22 -5 -30 -17 -30 -50
0 -119 -75 -130 -142 -12 -80 43 -175 115 -196 25 -8 126 -12 284 -12 233 0
246 1 288 22 54 27 87 74 96 134 12 84 -45 176 -118 191 -20 4 -30 13 -34 32
-11 51 -35 106 -57 131 -62 70 -174 108 -242 81z"/>
</g>
</svg>
