<?xml version="1.0" standalone="no"?>
<!DOCTYPE svg PUBLIC "-//W3C//DTD SVG 20010904//EN"
 "http://www.w3.org/TR/2001/REC-SVG-20010904/DTD/svg10.dtd">
<svg version="1.0" xmlns="http://www.w3.org/2000/svg"
 width="41.000000pt" height="60.000000pt" viewBox="0 0 41.000000 60.000000"
 preserveAspectRatio="xMidYMid meet">

<g transform="translate(0.000000,60.000000) scale(0.100000,-0.100000)"
fill="#000000" stroke="none">
<path d="M145 588 c-145 -51 -188 -220 -85 -332 22 -24 45 -60 52 -81 12 -36
16 -39 73 -52 33 -7 71 -16 85 -19 14 -3 21 -2 17 3 -5 4 -41 15 -80 24 -65
14 -72 18 -77 42 -3 15 -23 48 -45 74 -58 67 -64 81 -65 148 0 72 20 111 81
155 68 49 170 41 232 -18 43 -40 57 -75 57 -137 0 -65 -8 -82 -67 -150 -23
-27 -43 -56 -43 -63 0 -10 -12 -12 -47 -7 -52 6 -34 -7 25 -18 30 -6 37 -1 34
24 -1 4 21 32 48 63 55 63 75 118 66 181 -18 120 -149 202 -261 163z"/>
<path d="M130 91 c0 -4 26 -13 58 -20 31 -7 66 -15 77 -18 11 -3 17 -2 13 2
-10 10 -148 44 -148 36z"/>
<path d="M130 36 c0 -3 26 -10 57 -16 32 -7 64 -15 73 -18 10 -3 12 -2 5 5
-14 15 -135 40 -135 29z"/>
</g>
</svg>
