<?xml version="1.0" standalone="no"?>
<!DOCTYPE svg PUBLIC "-//W3C//DTD SVG 20010904//EN"
 "http://www.w3.org/TR/2001/REC-SVG-20010904/DTD/svg10.dtd">
<svg version="1.0" xmlns="http://www.w3.org/2000/svg"
 width="189.000000pt" height="24.000000pt" viewBox="0 0 189.000000 24.000000"
 preserveAspectRatio="xMidYMid meet">

<g transform="translate(0.000000,24.000000) scale(0.100000,-0.100000)"
fill="#000000" stroke="none">
<path d="M97 223 c-7 -11 -87 -204 -87 -209 0 -2 13 -4 29 -4 20 0 30 6 34 20
8 30 102 30 110 0 4 -14 14 -20 36 -20 l30 0 -35 83 c-20 45 -41 94 -46 110
-8 21 -16 27 -38 27 -16 0 -31 -3 -33 -7z m48 -106 c6 -24 5 -27 -14 -24 -30
5 -33 11 -20 41 14 30 24 25 34 -17z"/>
<path d="M291 199 c-43 -43 -44 -104 -2 -151 26 -29 36 -33 79 -33 62 0 103
28 78 54 -13 12 -19 13 -39 2 -36 -19 -70 -10 -85 23 -26 54 20 107 71 81 23
-12 29 -11 48 4 l22 18 -24 16 c-14 10 -43 17 -70 17 -40 0 -53 -5 -78 -31z"/>
<path d="M480 205 c0 -22 4 -25 35 -25 l35 0 0 -85 c0 -84 0 -85 25 -85 25 0
25 1 25 85 l0 85 35 0 c31 0 35 3 35 25 0 25 0 25 -95 25 -95 0 -95 0 -95 -25z"/>
<path d="M705 218 c-2 -7 -3 -56 -2 -108 l2 -95 28 -3 27 -3 0 110 0 111 -25
0 c-14 0 -28 -6 -30 -12z"/>
<path d="M802 221 c83 -213 82 -211 109 -211 25 0 30 9 68 103 23 56 41 105
41 110 0 4 -12 7 -28 7 -25 0 -30 -6 -54 -72 -15 -44 -28 -67 -32 -58 -3 8
-15 41 -26 73 -20 52 -24 57 -52 57 -16 0 -28 -4 -26 -9z"/>
<path d="M1050 120 l0 -110 90 0 c89 0 90 0 90 25 0 24 -3 25 -60 25 -53 0
-60 2 -60 20 0 18 7 20 54 20 46 0 54 3 52 18 -2 13 -14 18 -54 20 -46 3 -52
6 -52 26 0 19 4 21 35 18 52 -6 85 5 85 28 0 18 -7 20 -90 20 l-90 0 0 -110z"/>
</g>
</svg>
