<?xml version="1.0" standalone="no"?>
<!DOCTYPE svg PUBLIC "-//W3C//DTD SVG 20010904//EN"
 "http://www.w3.org/TR/2001/REC-SVG-20010904/DTD/svg10.dtd">
<svg version="1.0" xmlns="http://www.w3.org/2000/svg"
 width="60.000000pt" height="60.000000pt" viewBox="0 0 60.000000 60.000000"
 preserveAspectRatio="xMidYMid meet">

<g transform="translate(0.000000,60.000000) scale(0.100000,-0.100000)"
fill="#000000" stroke="none">
<path d="M62 537 c-34 -34 -62 -65 -62 -68 0 -3 10 -17 23 -30 34 -37 134
-127 115 -103 -22 25 -23 38 -3 54 9 7 13 15 10 18 -3 3 -13 -2 -22 -11 -17
-14 -20 -14 -42 4 l-24 20 38 39 c46 47 36 54 -11 9 -34 -33 -64 -34 -64 -3 0
17 97 114 113 114 5 0 37 -30 72 -67 35 -38 65 -66 68 -63 6 6 -131 150 -142
150 -4 0 -35 -28 -69 -63z"/>
<path d="M265 400 l-201 -200 -32 -97 c-17 -53 -30 -98 -29 -100 2 -1 48 12
102 29 l100 30 198 202 c108 110 197 206 197 211 0 13 -112 125 -125 125 -5 0
-99 -90 -210 -200z m267 133 c26 -26 48 -54 48 -62 0 -8 -14 -27 -32 -43 l-32
-28 -53 52 c-29 29 -53 57 -53 62 0 13 51 66 64 66 6 0 32 -21 58 -47z m-126
-44 c9 -15 -275 -299 -298 -299 -10 0 -18 3 -18 7 0 10 292 303 302 303 4 0
10 -5 14 -11z m-81 -210 c-149 -147 -195 -177 -195 -127 0 16 43 66 147 170
l148 148 23 -23 23 -23 -146 -145z m172 114 c5 -14 -287 -314 -299 -307 -4 3
-8 13 -8 22 0 19 280 303 294 298 6 -1 11 -7 13 -13z m-379 -245 c3 -21 9 -27
30 -30 21 -2 27 -8 27 -28 0 -21 -8 -27 -70 -46 -38 -12 -73 -20 -77 -18 -4 2
2 32 14 67 11 34 22 68 24 75 2 7 14 12 26 10 16 -2 24 -11 26 -30z"/>
<path d="M514 201 c78 -78 77 -69 2 -143 -41 -41 -63 -47 -73 -22 -3 9 6 28
26 48 46 47 38 57 -10 11 l-40 -40 -19 25 c-24 30 -24 36 -5 44 8 3 15 11 15
17 0 8 -7 6 -18 -4 -23 -21 -27 -21 -46 -1 -9 8 -16 12 -16 7 0 -11 128 -143
138 -143 13 0 122 117 122 131 0 16 -120 139 -135 139 -5 0 22 -31 59 -69z"/>
</g>
</svg>
