<?xml version="1.0" standalone="no"?>
<!DOCTYPE svg PUBLIC "-//W3C//DTD SVG 20010904//EN"
 "http://www.w3.org/TR/2001/REC-SVG-20010904/DTD/svg10.dtd">
<svg version="1.0" xmlns="http://www.w3.org/2000/svg"
 width="73.000000pt" height="60.000000pt" viewBox="0 0 73.000000 60.000000"
 preserveAspectRatio="xMidYMid meet">

<g transform="translate(0.000000,60.000000) scale(0.100000,-0.100000)"
fill="#000000" stroke="none">
<path d="M12 588 c-16 -16 -17 -434 -1 -444 6 -3 85 -6 175 -5 162 2 164 2
172 -20 l9 -23 6 23 c5 21 8 22 171 21 91 -1 170 1 176 5 15 9 14 427 -2 443
-17 17 -689 17 -706 0z m696 -13 c10 -4 12 -50 10 -212 l-3 -208 -348 0 -349
0 0 207 c0 113 2 210 5 215 5 8 662 7 685 -2z"/>
<path d="M60 365 l0 -175 305 0 305 0 0 175 0 175 -305 0 -305 0 0 -175z m600
0 l0 -165 -295 0 -295 0 0 165 0 165 295 0 295 0 0 -165z"/>
<path d="M237 64 c-4 -4 -7 -20 -7 -36 l0 -28 136 0 135 0 -3 33 -3 32 -126 3
c-69 1 -128 -1 -132 -4z m250 -19 c3 -9 4 -18 2 -20 -7 -7 -237 -10 -244 -3
-4 4 -5 14 -2 23 9 22 235 22 244 0z"/>
</g>
</svg>
