<?xml version="1.0" standalone="no"?>
<!DOCTYPE svg PUBLIC "-//W3C//DTD SVG 20010904//EN"
 "http://www.w3.org/TR/2001/REC-SVG-20010904/DTD/svg10.dtd">
<svg version="1.0" xmlns="http://www.w3.org/2000/svg"
 width="56.000000pt" height="60.000000pt" viewBox="0 0 56.000000 60.000000"
 preserveAspectRatio="xMidYMid meet">

<g transform="translate(0.000000,60.000000) scale(0.100000,-0.100000)"
fill="#000000" stroke="none">
<path d="M238 581 c-13 -11 -33 -38 -43 -60 l-18 -41 -61 0 c-77 0 -106 -18
-106 -64 0 -19 11 -49 25 -70 31 -45 31 -47 0 -92 -14 -21 -25 -51 -25 -70 0
-46 29 -64 105 -64 l60 0 25 -47 c14 -26 37 -54 53 -63 24 -13 30 -13 55 0 15
9 38 37 52 63 l25 47 60 0 c76 0 105 18 105 64 0 19 -11 49 -25 70 -31 45 -31
47 0 92 14 21 25 51 25 70 0 46 -29 64 -106 64 -59 0 -62 1 -74 30 -18 42 -64
90 -88 90 -10 0 -30 -9 -44 -19z m96 -33 c40 -53 38 -70 -11 -87 -38 -14 -48
-14 -86 0 -49 17 -51 34 -11 87 18 23 33 32 54 32 21 0 36 -9 54 -32z m-169
-125 c-4 -27 -15 -54 -24 -61 -9 -7 -26 -22 -39 -32 -12 -11 -24 -20 -27 -20
-2 0 -16 20 -30 43 -47 82 -28 117 66 117 l60 0 -6 -47z m359 31 c9 -8 16 -25
16 -36 0 -23 -46 -108 -58 -108 -4 1 -23 15 -43 33 -28 25 -38 42 -43 80 l-7
47 60 0 c41 0 64 -5 75 -16z m-281 -13 c5 -5 -8 -19 -28 -31 -20 -12 -38 -20
-41 -18 -2 3 -1 19 2 37 6 29 10 32 33 26 14 -4 30 -10 34 -14z m141 -13 c3
-17 4 -33 2 -36 -5 -5 -76 37 -76 44 0 6 41 22 56 23 6 1 14 -13 18 -31z m-47
-28 c58 -33 68 -53 60 -121 -5 -45 -16 -57 -80 -90 l-38 -20 -50 28 c-28 15
-55 38 -60 51 -13 34 -11 96 4 115 11 14 95 67 107 67 3 0 29 -14 57 -30z
m-187 -102 c0 -48 -1 -50 -17 -36 -36 30 -47 29 -14 -2 29 -28 50 -75 51 -117
0 -20 -114 -17 -134 3 -19 18 -20 47 -5 77 10 19 108 127 116 127 2 0 3 -23 3
-52z m317 -2 c-1 -1 -14 -12 -29 -25 l-28 -24 0 53 0 54 30 -29 c16 -16 29
-29 27 -29z m50 -55 c48 -71 23 -111 -68 -111 -64 0 -64 0 -50 62 9 39 56 89
81 85 8 -1 25 -17 37 -36z m-302 -52 c38 -23 37 -33 -6 -44 -22 -5 -27 -2 -33
17 -7 27 -8 48 -2 48 3 0 21 -10 41 -21z m175 9 c0 -7 -3 -23 -6 -36 -6 -19
-11 -22 -33 -17 -42 10 -44 21 -9 43 39 24 48 26 48 10z m-38 -69 c15 -8 16
-14 6 -37 -41 -95 -115 -95 -156 0 -12 30 -9 34 36 49 29 9 86 3 114 -12z"/>
<path d="M253 333 c-22 -8 -16 -61 7 -68 35 -11 60 3 60 35 0 34 -29 49 -67
33z m52 -33 c0 -18 -6 -26 -23 -28 -24 -4 -38 18 -28 44 3 9 15 14 28 12 17
-2 23 -10 23 -28z"/>
</g>
</svg>
